<svg width="1440" height="324" viewBox="0 0 1440 324" fill="none" xmlns="http://www.w3.org/2000/svg">
<g clip-path="url(#clip0)">
<path fill-rule="evenodd" clip-rule="evenodd" d="M0 0H1440V439H0V0Z" fill="url(#paint0_linear)"/>
<path fill-rule="evenodd" clip-rule="evenodd" d="M501 132C523.708 72.206 629.225 25.872 817.55 -7C657.696 -99.667 552.179 -146 501 -146C424.232 -146 362 -83.768 362 -7C362 69.768 466.938 221.691 501 132Z" fill="url(#paint1_linear)"/>
<path fill-rule="evenodd" clip-rule="evenodd" d="M200.458 -133.461C212.946 -244.882 -116.994 -136.006 28.5287 -38.1593C174.05 59.6884 50.0363 112.61 123.83 133.77C197.625 154.93 274.599 112.262 295.759 38.4679C316.919 -35.3253 187.969 -22.0401 200.458 -133.461Z" fill="url(#paint2_linear)"/>
<path fill-rule="evenodd" clip-rule="evenodd" d="M1380 307C1565.32 379 1590 212.98 1590 97C1590 -18.98 1495.98 -113 1380 -113C1264.02 -113 1206.97 -12 1170 97C1133.04 206 1194.68 235 1380 307Z" fill="url(#paint3_linear)"/>
<path d="M1380 217C1446.27 217 1500 163.274 1500 97C1500 30.7258 1446.27 -23 1380 -23C1313.73 -23 1260 30.7258 1260 97C1260 163.274 1313.73 217 1380 217Z" fill="url(#paint4_linear)"/>
<path fill-rule="evenodd" clip-rule="evenodd" d="M1571.23 199C1756.55 271 1781.23 104.98 1781.23 -11C1781.23 -126.98 1687.21 -221 1571.23 -221C1455.25 -221 1398.2 -120 1361.23 -11C1324.27 98 1385.92 127 1571.23 199Z" fill="url(#paint5_linear)"/>
<path fill-rule="evenodd" clip-rule="evenodd" d="M1014.15 30.626C1013.22 31.019 1012.17 31.371 1011.04 31.666C1009.85 31.9571 1008.66 32.1966 1007.45 32.384C1004.96 32.799 1002.34 32.946 999.97 33.038C997.557 33.091 995.415 33.047 993.817 32.928C993.525 31.668 994.297 31.725 994.952 31.637C995.598 31.542 996.123 31.304 995.368 29.484C996.635 30.276 996.782 33.682 999.052 32.216C999.02 29.905 997.83 30.323 996.802 30.366C997.802 28.306 999.152 29.108 1000.53 29.855C1001.8 30.548 1003.13 31.21 1004.17 29.653C1004.24 29.512 1004.33 29.359 1004.45 29.183C1004.36 29.361 1004.27 29.513 1004.17 29.653C1003.48 31.049 1005.09 30.83 1007.67 30.105C1010.51 29.335 1014.48 27.945 1017.88 27.623C1017.38 28.849 1016.02 29.843 1014.16 30.626H1014.15ZM936.938 -0.885025C936.471 -0.399025 934.787 -0.439033 933.445 -2.44003C932.668 -1.76003 931.682 -1.70503 930.555 -2.08603C930.906 -2.89303 931.489 -2.94402 931.76 -3.98602C931.259 -4.32202 931.042 -3.74603 930.833 -3.12103C929.211 -6.44103 934.129 -4.90103 933.445 -2.44003C936.723 -2.35803 937.407 -1.37403 936.938 -0.885025V-0.885025ZM927.397 1.50298C928.589 -0.470025 932.391 1.69796 932.846 2.92996C930.862 4.36996 930.157 2.40298 927.397 1.50298ZM1341.86 -128.474C1341.41 -132.489 1340.66 -136.464 1339.62 -140.367C1339.41 -141.132 1339.19 -141.895 1338.96 -142.654C1338.51 -144.163 1338 -145.74 1337.45 -147.187C1336.9 -148.676 1336.31 -150.15 1335.67 -151.607C1335.04 -153.097 1334.35 -154.475 1333.62 -155.912C1332.16 -158.791 1330.51 -161.512 1328.66 -164.253C1324.76 -169.937 1320.16 -175.106 1314.96 -179.638C1313.29 -181.094 1311.53 -182.45 1309.74 -183.733L1309.06 -184.21L1308.44 -184.627L1307.22 -185.423C1306.4 -185.944 1305.56 -186.447 1304.72 -186.933C1301.5 -188.774 1298.12 -190.316 1294.62 -191.54C1287.87 -193.896 1281.27 -194.872 1275.16 -194.988C1269.04 -195.104 1263.4 -194.373 1258.28 -193.322C1253.15 -192.268 1248.52 -190.895 1244.31 -189.664C1243.24 -189.338 1242.18 -188.969 1241.14 -188.557C1240.14 -188.134 1239.14 -187.681 1238.17 -187.187C1236.26 -186.16 1234.4 -185.034 1232.61 -183.815C1229 -181.405 1225.56 -178.51 1222.35 -175.639C1215.9 -169.854 1210.36 -163.84 1205.45 -160.175C1204.9 -159.765 1204.28 -161.834 1203.19 -161.265C1200.41 -159.758 1197.46 -156.251 1194.76 -152.636C1192.05 -148.961 1189.58 -145.274 1187.47 -143.421C1184.99 -143.839 1183.75 -141.083 1182.6 -138.958C1181.44 -136.848 1180.38 -135.298 1177.96 -138.138C1177.06 -136.355 1176.05 -134.627 1174.95 -132.963C1173.9 -131.373 1172.81 -129.869 1171.68 -128.513C1170.55 -127.146 1169.39 -125.923 1168.21 -124.758C1167.07 -123.609 1165.87 -122.518 1164.62 -121.488C1164.02 -120.988 1163.41 -120.508 1162.8 -120.049C1162.19 -119.585 1161.59 -119.104 1160.98 -118.66C1159.8 -117.787 1158.59 -116.951 1157.36 -116.151C1156.16 -115.387 1155 -114.561 1153.85 -113.83L1150.52 -111.676C1150.71 -108.96 1153 -106.991 1152.06 -106.538C1150.7 -105.49 1149.88 -109.831 1148.48 -108.773C1148.62 -106.255 1150.82 -105.284 1149.78 -104.682C1149.19 -105.826 1148.58 -106.85 1147.92 -107.471C1148.33 -105.655 1149.42 -105.056 1148.92 -104.405C1148.48 -104.272 1148.68 -103.413 1148.39 -103.112C1147.59 -103.546 1147.03 -107.009 1146.17 -106.908C1146.88 -104.68 1146.33 -104.878 1145.73 -105.041C1145.14 -105.201 1144.49 -105.351 1145.06 -103.107C1145.77 -103.427 1146.42 -102.726 1147.03 -101.547C1144.22 -100.692 1141.4 -98.135 1138.89 -95.595C1138.27 -94.9879 1137.64 -94.3928 1137 -93.81C1136.38 -93.237 1135.79 -92.68 1135.19 -92.215C1134 -91.279 1132.82 -90.65 1131.6 -90.559C1131.81 -88.094 1131.09 -87.322 1130.2 -86.709C1129.75 -86.402 1129.25 -86.135 1128.82 -85.719C1128.38 -85.297 1128.01 -84.699 1127.81 -83.781C1126.1 -87.751 1125.28 -85.984 1125.26 -84.847C1125.79 -84.992 1126.32 -85.054 1127.05 -83.37C1126.83 -81.21 1125.59 -80.96 1124.18 -81.01C1122.78 -81.08 1121.22 -81.524 1120.47 -80.885C1119.65 -80.171 1120.74 -75.18 1119.3 -75.165C1117.61 -75.15 1116.56 -74.106 1115.68 -72.815C1114.8 -71.525 1114.07 -69.902 1112.96 -68.606C1111.33 -66.7352 1109.6 -64.9621 1107.77 -63.296C1105.86 -61.54 1103.85 -59.866 1101.7 -58.166C1097.44 -54.804 1092.78 -51.51 1088.1 -48.269L1084.63 -45.849L1081.21 -43.446C1078.92 -41.854 1076.78 -40.256 1074.68 -38.673C1073.64 -37.881 1072.67 -37.073 1071.7 -36.279C1070.75 -35.5084 1069.83 -34.7056 1068.93 -33.872C1067.22 -32.237 1065.63 -30.634 1064.38 -28.93C1062.74 -29.54 1061.08 -29.378 1059.48 -28.76C1057.87 -28.144 1056.28 -27.137 1054.8 -26.007C1053.32 -24.903 1051.93 -23.727 1050.75 -22.799C1049.56 -21.89 1048.57 -21.255 1047.91 -21.226C1045.99 -21.146 1046.75 -18.575 1043.6 -17.16C1038.09 -14.719 1034.04 -12.46 1029.38 -17.76C1028.35 -16.047 1026.91 -14.974 1025.29 -14.307C1023.68 -13.622 1021.91 -13.301 1020.2 -13.064C1019.35 -12.939 1018.51 -12.826 1017.72 -12.682C1016.92 -12.55 1016.17 -12.394 1015.48 -12.164C1014.11 -11.71 1013.02 -10.955 1012.36 -9.63103C1013.46 -9.26703 1014.71 -9.64503 1015.56 -8.20703C1014.3 -7.88292 1013.04 -7.57954 1011.77 -7.29703L1010.81 -11.476C1009.29 -10.893 1007.77 -10.562 1006.27 -10.375C1004.76 -10.181 1003.3 -10.058 1001.86 -9.93303C1000.42 -9.80103 999.038 -9.58302 997.694 -9.17802C996.275 -8.76374 994.953 -8.06754 993.809 -7.13103C994.434 -6.97103 995.383 -5.59803 994.675 -5.10103C992.975 -5.17103 990.526 -3.30304 989.974 -6.58904C991.21 -7.94304 993.052 -3.73203 993.264 -7.05103C991.919 -7.71003 990.825 -8.97304 989.145 -8.65604C989.255 -7.05104 989.851 -4.75303 989.133 -4.32803C985.536 -5.03603 982.286 -4.62403 979.33 -3.90503C977.913 -3.55809 976.506 -3.17329 975.11 -2.75104C973.775 -2.38104 972.518 -2.05102 971.364 -1.85902C971.529 -2.52302 972.684 -6.03503 971.245 -6.14603C968.455 -2.39003 964.055 -3.37703 959.901 -4.64503C955.714 -5.89403 951.841 -7.30003 948.889 -3.96503C948.779 -6.77303 947.492 -7.62103 945.983 -7.39903C944.479 -7.16703 942.733 -5.77104 941.83 -3.94904C942.257 -6.25904 941.814 -7.55603 940.903 -8.28903C939.991 -9.02003 938.598 -9.18604 937.076 -9.30704C935.713 -9.29704 937.356 -6.25803 935.099 -6.46303C934.341 -7.20862 933.53 -7.89905 932.673 -8.52904C931.883 -9.09936 931.05 -9.60626 930.18 -10.045C928.485 -10.967 926.685 -11.564 924.81 -12.22C922.938 -12.882 920.933 -13.478 918.873 -14.389C916.788 -15.244 914.654 -16.417 912.464 -17.989C910.574 -16.173 912.226 -13.645 910.581 -14.136C908.568 -13.806 906.638 -15.013 905.069 -16.511C903.509 -18.036 902.237 -19.731 901.322 -20.45C902.232 -19.699 900.086 -18.973 900.771 -20.795C902.327 -22.382 902.777 -21.367 903.428 -20.35C904.065 -19.324 904.878 -18.23 906.871 -19.696C906.053 -20.231 904.625 -21.966 903.156 -23.358C901.688 -24.763 900.083 -25.726 898.659 -24.685C897.749 -23.137 898.84 -23.382 899.731 -23.517C900.618 -23.644 901.305 -23.633 899.666 -21.489C898.727 -21.653 898.019 -21.896 897.426 -22.236C896.836 -22.581 896.348 -23.004 895.821 -23.5C895.293 -23.996 894.727 -24.565 893.98 -25.208C893.076 -26.0202 892.118 -26.7709 891.113 -27.455C892.16 -28.481 893.088 -28.535 894.223 -30.486C892.521 -29.321 891.051 -29.244 889.438 -29.418C887.818 -29.588 885.986 -29.904 883.44 -29.543C884.07 -28.28 884.82 -27.163 885.613 -26.095C886.011 -25.565 886.423 -25.051 886.851 -24.556C887.288 -24.076 887.738 -23.61 888.199 -23.158C889.124 -22.258 890.072 -21.384 891.079 -20.582C892.087 -19.783 893.119 -19.008 894.164 -18.228C898.404 -15.163 902.824 -12.215 907.282 -7.38803C901.162 -10.53 896.592 -13.212 892.564 -16.085C891.58 -16.8103 890.614 -17.5585 889.665 -18.329C888.72 -19.088 887.84 -19.931 886.95 -20.781C885.163 -22.471 883.517 -24.437 881.853 -26.655C880.951 -25.768 879.963 -24.258 879.227 -24.672C880.383 -26.694 879.67 -28.265 878.368 -29.507C877.07 -30.75 875.221 -31.757 874.026 -32.454C876.816 -29.136 873.606 -32.079 872 -31.428C872.895 -31.125 873.12 -29.458 873.069 -28.084C873.019 -26.818 872.719 -25.817 872.393 -26.447C873.078 -24.714 874.803 -23.419 876.439 -22.169C878.144 -20.874 879.838 -19.741 880.345 -18.169C880.593 -17.443 878.115 -16.136 878.915 -15.185C878.85 -15.272 880.944 -17.691 881.483 -17.257C882.9 -16.114 882.289 -13.096 883.673 -11.582C885.05 -10.146 888.268 -9.83503 889.798 -8.69003C897.251 -3.08603 905.658 3.00697 915.274 8.08997C924.933 13.266 935.397 17.251 945.219 19.359C951.815 20.795 958.357 21.504 964.669 21.814C970.987 22.124 977.079 22.041 982.929 21.894C988.78 21.745 994.395 21.541 999.829 21.562C1005.27 21.614 1010.65 21.819 1016.09 22.527C1013.82 22.5881 1011.56 22.7569 1009.31 23.033C1006.98 23.267 1004.62 23.661 1002.2 24.016C997.394 24.791 992.236 25.698 986.796 26.387C981.357 27.072 975.614 27.517 969.74 27.314C963.875 27.114 957.874 26.262 952.125 24.424C950.685 27.96 949.085 23.507 948.075 27.261C954.166 27.901 961.731 28.441 968.925 28.832C976.137 29.247 982.992 29.558 988.135 30.338C988.904 33.188 984.912 29.894 985.651 32.735C987.281 33.374 990.699 30.283 990.613 34.398C979.338 35.058 966.203 34.69 952.592 33.017C945.73 32.1712 938.906 31.0416 932.137 29.631C930.462 29.308 928.762 28.901 927.103 28.539C925.446 28.186 923.784 27.774 922.149 27.378L919.713 26.792L917.283 26.158C915.68 25.733 914.086 25.345 912.547 24.926C914.641 26.486 916.893 27.823 919.255 29.05C921.589 30.205 924.089 31.31 926.698 32.246C929.334 33.236 932.083 34.091 935.056 35.001L939.624 36.311C941.212 36.772 942.805 37.178 944.498 37.651C951.702 39.612 959.418 40.771 967.006 41.302C974.59 41.829 982.045 41.744 989.014 41.409L991.617 41.279L994.152 41.117C995.848 41.017 997.482 40.892 999.095 40.771L1008.37 40.044C1014.34 39.604 1019.82 39.187 1024.63 39.284C1025.98 37.724 1030.46 36.088 1035.12 34.936C1037.46 34.376 1039.85 33.906 1041.94 33.736C1044.03 33.538 1045.83 33.593 1046.98 34.059C1053.77 31.745 1060.88 28.914 1068 25.748C1075.12 22.584 1082.26 19.088 1089.2 15.517C1092.72 13.729 1096 11.95 1099.3 10.255C1102.4 8.58797 1105.59 6.97098 1108.4 5.54198L1110.56 4.48196L1112.65 3.48196C1113.97 2.85409 1115.31 2.25066 1116.66 1.67197C1117.31 1.40097 1117.95 1.13296 1118.58 0.869965C1119.2 0.617965 1119.82 0.375974 1120.44 0.144974C1121.63 -0.307454 1122.84 -0.723323 1124.06 -1.10204C1123.87 -0.676036 1123.19 -0.485025 1123.76 0.392975C1125.7 -0.309708 1127.58 -1.15883 1129.39 -2.14703C1131.19 -3.11858 1132.91 -4.23811 1134.52 -5.49403C1136.02 -6.67603 1137.43 -8.03004 1138.53 -9.41904C1139.59 -10.781 1140.44 -12.265 1140.96 -13.822C1138.94 -15.671 1138.2 -11.164 1136.13 -13.144C1136.82 -14.077 1137.55 -15.122 1138.56 -15.965C1139.07 -16.3965 1139.64 -16.7412 1140.26 -16.985C1140.98 -17.26 1141.74 -17.4088 1142.51 -17.425C1143.25 -16.269 1142.89 -15.896 1143.94 -14.519L1145.16 -15.406L1146.3 -16.211L1148.56 -17.779L1150.68 -19.172C1151.39 -19.628 1152.1 -20.098 1152.73 -20.475L1154.67 -21.675C1155 -21.888 1155.3 -22.057 1155.59 -22.229L1156.48 -22.753L1157.37 -23.284C1157.66 -23.468 1157.95 -23.644 1158.21 -23.786C1158.75 -24.0914 1159.29 -24.4048 1159.82 -24.726C1160.36 -25.074 1160.83 -25.326 1161.3 -25.613C1161.78 -25.895 1162.26 -26.203 1162.72 -26.501C1163.63 -27.0311 1164.52 -27.6179 1165.36 -28.258C1166.31 -28.8657 1167.22 -29.5348 1168.08 -30.261C1169.04 -30.94 1169.96 -31.737 1170.91 -32.606C1173.66 -34.991 1176.52 -37.8 1179.61 -41.029C1180.39 -41.814 1181.19 -42.615 1181.99 -43.472L1183.21 -44.775L1184.47 -46.068L1189.75 -51.661C1193.44 -55.509 1197.42 -59.788 1201.79 -64.2C1203.96 -66.483 1206.24 -68.683 1208.6 -71.093L1212.22 -74.64C1213.45 -75.85 1214.7 -77.091 1215.97 -78.289C1216.92 -79.189 1217.9 -80.105 1218.88 -81.011L1220.37 -82.358L1221.84 -83.625C1223.78 -85.281 1225.67 -86.835 1227.16 -88.04C1229.62 -90.031 1231.76 -91.12 1233.86 -92.102C1235.95 -93.08 1237.98 -93.962 1240.37 -95.474C1243.43 -97.393 1246.93 -100.247 1251.21 -102.634C1253.33 -103.811 1255.65 -104.891 1258.08 -105.605C1259.3 -105.976 1260.55 -106.257 1261.81 -106.446C1263.06 -106.593 1264.37 -106.694 1265.64 -106.606C1267.84 -106.514 1270.25 -105.845 1272.74 -104.742C1275.23 -103.642 1277.77 -102.08 1280.17 -100.19C1282.59 -98.31 1284.9 -96.13 1287.05 -93.922C1287.6 -93.378 1288.1 -92.812 1288.63 -92.274C1289.15 -91.732 1289.7 -91.212 1290.19 -90.683C1290.68 -90.1682 1291.19 -89.668 1291.72 -89.183C1291.97 -88.946 1292.23 -88.716 1292.5 -88.493C1292.75 -88.267 1293 -88.048 1293.25 -87.838C1294.34 -86.9362 1295.47 -86.0859 1296.64 -85.29C1297.69 -84.5373 1298.8 -83.8577 1299.94 -83.256C1302.17 -82.1 1304.44 -81.372 1306.76 -81.14C1309.08 -80.906 1311.44 -81.17 1313.81 -81.933C1316.17 -82.692 1318.54 -83.951 1320.83 -85.613C1323.1 -87.263 1325.23 -89.281 1327.25 -91.518C1328.24 -92.6218 1329.19 -93.7581 1330.11 -94.925C1331.01 -96.078 1331.89 -97.245 1332.73 -98.392L1335.13 -101.683C1335.84 -102.665 1336.59 -103.626 1337.35 -104.567C1338.81 -106.316 1340.2 -107.663 1341.63 -108.256C1342.55 -115.146 1342.59 -122.036 1341.86 -128.474" fill="url(#paint6_linear)"/>
</g>
<defs>
<linearGradient id="paint0_linear" x1="720" y1="0" x2="720" y2="309.328" gradientUnits="userSpaceOnUse">
<stop stop-color="#535FD7" stop-opacity="0.08"/>
<stop offset="1" stop-color="#F9F9F9" stop-opacity="0"/>
</linearGradient>
<linearGradient id="paint1_linear" x1="812.48" y1="3.34678" x2="367.07" y2="3.34678" gradientUnits="userSpaceOnUse">
<stop stop-color="white"/>
<stop offset="1" stop-color="white" stop-opacity="0"/>
</linearGradient>
<linearGradient id="paint2_linear" x1="-14.2036" y1="-64.1285" x2="295.864" y2="24.782" gradientUnits="userSpaceOnUse">
<stop stop-color="white"/>
<stop offset="1" stop-color="white" stop-opacity="0"/>
</linearGradient>
<linearGradient id="paint3_linear" x1="1374.88" y1="-113" x2="1374.88" y2="324.5" gradientUnits="userSpaceOnUse">
<stop offset="0.197917" stop-color="#FF3B87"/>
<stop offset="1" stop-color="#6B32E3" stop-opacity="0.48"/>
</linearGradient>
<linearGradient id="paint4_linear" x1="1380" y1="-23" x2="1380" y2="217" gradientUnits="userSpaceOnUse">
<stop stop-color="#FF3B87"/>
<stop offset="1" stop-color="#6B32E3" stop-opacity="0"/>
</linearGradient>
<linearGradient id="paint5_linear" x1="1377.89" y1="-2.24983" x2="1462.27" y2="224.601" gradientUnits="userSpaceOnUse">
<stop stop-color="#FF3B87"/>
<stop offset="1" stop-color="#6B32E3" stop-opacity="0.48"/>
</linearGradient>
<linearGradient id="paint6_linear" x1="1107.18" y1="-195" x2="1107.18" y2="41.6788" gradientUnits="userSpaceOnUse">
<stop stop-color="#FF3B87"/>
<stop offset="1" stop-color="#FF3B87" stop-opacity="0.48"/>
</linearGradient>
<clipPath id="clip0">
<rect width="1440" height="324" fill="white"/>
</clipPath>
</defs>
</svg>
