<svg width="733" height="749" viewBox="0 0 733 749" fill="none" xmlns="http://www.w3.org/2000/svg">
<g clip-path="url(#clip0)">
<path fill-rule="evenodd" clip-rule="evenodd" d="M492.137 242.004C569.105 164.026 761.906 385.485 974.235 434.693C1115.79 467.499 1189.04 457.488 1193.98 404.661L1120.7 840.988C994.794 694.726 904.157 623.211 848.785 626.445C793.414 629.678 752.441 653.173 725.865 696.928C762.81 508.585 737.996 438.536 651.424 486.782C521.566 559.152 415.17 319.983 492.137 242.004V242.004Z" fill="url(#paint0_linear)"/>
<path fill-rule="evenodd" clip-rule="evenodd" d="M163.793 26.0005C96.5664 -57.9998 408.905 86.4849 621.235 135.693C762.789 168.499 848.895 173.237 879.555 149.907C668.274 258.635 535.006 304.368 479.75 287.1C424.495 269.835 388.867 306.777 372.866 397.927C409.81 209.584 384.996 139.535 298.424 187.781C168.566 260.151 231.019 110 163.793 25.9995L163.793 26.0005Z" fill="url(#paint1_linear)"/>
<path fill-rule="evenodd" clip-rule="evenodd" d="M41.7461 290.594C80.8961 358.283 195.641 295.033 407.971 344.241C549.524 377.047 566.534 362.976 459 302.027C362.976 468.676 298.805 533.217 266.486 495.65C234.167 458.084 206.211 468.75 182.617 527.648C204.218 391.857 171.732 348.085 85.1593 396.331C-44.6967 468.701 2.59703 222.905 41.7471 290.594L41.7461 290.594Z" fill="url(#paint2_linear)"/>
<path fill-rule="evenodd" clip-rule="evenodd" d="M912.136 829.549C822.797 892.978 671.383 641.405 470.824 556.073C337.118 499.186 263.243 496.326 249.201 547.492L397.001 322C446.216 420.539 537.997 446.408 672.345 399.61C873.866 329.41 675.2 469.808 857.802 498C1040.4 526.191 1001.48 766.122 912.136 829.549Z" fill="url(#paint3_linear)"/>
<path fill-rule="evenodd" clip-rule="evenodd" d="M397.476 416.064C397.41 415.808 397.754 415.417 397.643 415.176C398.333 415.068 398.423 414.884 399.086 414.03C399.404 414.643 398.078 415.036 397.476 416.064V416.064ZM396.458 416.068C395.638 416.624 394.988 418.631 393.671 418.486C394.903 417.178 395.4 416.657 395.32 415.942C395.776 415.779 396.148 415.843 396.892 414.925C396.789 415.347 396.411 415.86 396.579 416.195C396.255 416.46 396.309 416.209 396.458 416.068V416.068ZM404.788 407.323C403.421 407.392 406.052 405.799 406.794 404.693C406.747 404.986 406.314 405.4 406.629 405.576C405.983 406.033 404.539 406.652 404.788 407.323ZM519.67 352.013C515.368 351.496 510.809 349.728 506.341 349.514C507.287 349.285 509.668 349.568 512.29 350.145C514.914 350.712 517.75 351.576 519.67 352.013V352.013ZM356.353 450.678C355.819 450.825 355.314 450.948 355.39 450.612C352.828 451.286 352.207 452.137 349.715 452.632C349.935 453.007 350.314 453.293 351.265 453.237C352.02 452.616 353.281 451.548 354.799 451.874C354.771 451.537 354.945 451.249 355.489 450.949C355.544 451.117 356.312 450.923 356.353 450.678ZM349.253 452.714C347.217 452.889 348.11 454.067 349.359 453.406C349.448 453.615 349.563 453.795 350.358 453.585C350.387 453.057 349.21 453.25 349.253 452.714ZM368.676 444.171C369.508 443.985 371.675 442.418 371.443 441.824C371.148 442.196 370.441 442.637 369.821 443.062C369.185 443.469 368.629 443.851 368.676 444.171V444.171ZM372.771 440.956C374.236 439.937 377.069 437.609 376.136 437.544C375.141 438.672 373.224 439.992 372.771 440.956ZM368.023 442.317C367.848 442.884 367.262 443.492 366.494 444.105C366.11 444.411 365.679 444.719 365.233 445.025C364.802 445.329 364.217 445.639 363.718 445.937C362.69 446.554 361.684 447.055 360.977 447.532C360.274 448.019 359.851 448.438 359.984 448.829C361.729 447.759 361.422 447.934 363.251 447.385C362.509 446.54 364.595 446.45 364.836 445.584C365.353 445.317 365.317 445.67 365.727 445.487C366.723 444.6 366.367 444.335 368.315 443.57C368.291 443.085 368.871 442.717 369.568 442.274C370.259 441.823 371.094 441.323 371.626 440.656L371.434 440.364C371.227 440.487 371.031 440.596 371.01 440.43C370.18 441.153 370.179 441.764 369.073 442.515C368.885 442.222 368.022 442.873 368.023 442.317V442.317ZM382.453 430.635C382.125 430.214 381.4 430.62 380.908 430.547C380.422 430.945 379.948 431.356 379.441 431.738C379.711 432.218 378.714 432.994 378.069 433.689C377.725 433.438 377.04 433.57 377.427 432.856C377.123 433.791 376.501 435.057 377.482 434.81C376.662 434.985 376.907 435.5 376.462 436.015C376.966 435.882 380.122 433.211 377.785 434.576C380.076 433.23 380.561 431.934 382.453 430.635V430.635ZM506.233 437.783C506.09 438.502 509.078 437.085 509.153 436.786C507.777 437.235 508.026 437.123 506.233 437.784L506.233 437.783ZM424.759 375.451L422.488 376.929C422.747 376.906 424.083 376.146 425.363 375.306C426.639 374.46 427.912 373.61 427.954 373.255C426.24 374.274 425.368 374.866 424.759 375.451V375.451ZM451.646 358.541C454.169 358.299 460.013 355.861 462.488 354.807C460.651 355.297 458.843 355.888 457.071 356.576L454.472 357.527C453.585 357.865 452.658 358.207 451.646 358.541V358.541ZM475.914 351.303C475.016 351.435 471.718 351.813 470.547 352.762C471.004 352.606 471.85 352.374 472.792 352.133L475.628 351.51C477.314 351.143 478.203 350.939 475.914 351.303V351.303ZM457.465 449.243C455.659 448.916 452.548 448.732 449.303 448.078C447.68 447.809 446.041 447.349 444.527 446.892C443.167 446.448 441.845 445.891 440.578 445.228C442.087 445.728 443.421 446.23 444.706 446.568C445.995 446.885 447.198 447.259 448.43 447.463C449.662 447.675 450.903 447.962 452.252 448.088C453.601 448.256 455.053 448.422 456.692 448.488C456.668 448.087 454.983 448.317 454.276 448.118C459.304 448.558 463.83 448.399 467.998 448.016C472.168 447.624 475.992 446.998 479.66 446.259C486.991 444.725 493.64 442.808 501.04 440.258C502.15 439.745 501.524 439.473 501.882 439.221C504.408 438.326 506.905 437.354 509.372 436.308C509.33 437.305 510.769 436.666 511.647 436.651C512.669 436.322 511.053 436.021 512.069 435.685C511.856 435.367 511.021 435.755 510.151 436.159C514.883 433.866 520.808 430.796 526.551 426.158C529.395 423.867 532.244 421.114 534.688 417.988C537.135 414.872 539.252 411.414 540.801 407.693C540.591 407.296 541.845 405.435 541.1 405.577C542.744 402.927 543.494 399.933 543.757 396.867C544.015 393.784 543.806 390.636 543.444 387.262C543.051 388.289 543.237 385.651 542.273 384.419C541.954 383.37 542.249 383.879 542.488 383.911C540.727 377.914 537.12 372.627 532.762 368.587C528.394 364.517 523.282 361.573 518.04 359.723C512.83 357.894 507.647 357.071 502.9 356.859C498.145 356.638 493.815 356.973 490.059 357.51C486.985 357.422 483.64 357.817 479.628 359.012C473.04 360.067 465.674 361.685 460.314 364.817C460.092 364.576 460.487 364.411 460.914 364.249C457.962 364.964 453.071 366.732 449.778 368.498C449.017 368.83 450.395 368.727 450.114 369.307C449.437 369.674 447.79 370.059 447.8 370.482C446.028 370.625 449.733 369.599 448.88 369.241C446.459 369.846 444.251 371.329 442.354 372.799C437.173 374.967 431.904 378.196 427.26 381.631C422.598 385.055 418.572 388.682 415.403 391.387C415.194 392.159 416.877 390.64 416.024 391.563C415.496 391.903 415.574 392.102 415.678 392.295C414.571 393.07 415.461 391.788 414.56 392.095C409.584 397.046 407.233 399.208 404.341 403.151C404.499 402.095 403.874 403.581 403.304 403.652C402.6 404.985 402.465 406.133 400.72 407.821C400.258 407.456 402.14 405.956 402.486 404.912C398.839 408.459 395.581 411.529 392.758 416.452C393.534 416.739 394.202 414.724 394.714 415.309C393.312 417.556 392.057 419.119 389.987 420.501C389.925 420.299 390.44 419.911 390.286 419.738C390.428 420.048 387.442 422.713 388.112 423.4C386.457 424.24 385.513 425.451 385.903 426.54C384.99 427.031 383.846 428.068 383.184 427.979C382.958 428.371 383.528 428.243 382.653 429.102C384.317 428.779 384.931 427.841 387.151 425.683C387.46 424.968 386.773 425.593 386.568 425.028C387.876 424.057 387.225 425.299 388.542 424.432C390.569 422.335 390.241 421.879 392.443 419.88C392.739 421.331 389.963 423.348 388.5 424.945C388.295 425.582 387.032 427.358 387.114 427.347C386.94 427.992 386.392 427.733 386.482 427.2C383.97 429.716 384.416 430.364 384.457 431.253C383.483 431.816 383.139 431.653 383.193 430.933C382.672 431.518 382.024 432.13 381.355 432.749C380.677 433.361 379.952 433.963 379.327 434.566C378.079 435.772 377.149 436.933 377.393 437.938C377.001 438.078 376.826 437.848 376.229 438.342C376.184 439.431 373.584 440.044 373.592 441.468C371.886 441.68 370.111 443.92 368.688 444.979L368.239 444.224C367.328 444.861 366.441 445.532 365.58 446.237C364.636 446.902 363.706 447.616 362.663 448.241C363.49 448.334 364.401 447.702 365.381 446.98C366.329 446.248 367.136 445.407 368.158 444.881C366.052 446.996 363.089 449.124 360.061 450.76C356.984 452.426 353.642 453.846 349.597 454.968L353.032 453.626C354.105 453.151 355.19 452.762 356.216 452.265C357.249 451.78 358.298 451.325 359.324 450.751C359.836 450.471 360.358 450.185 360.891 449.897L362.467 448.904C361.311 448.941 360.525 450.182 359.463 449.966C358.383 450.826 356.366 451.942 354.26 452.73C353.215 453.136 352.163 453.475 351.214 453.672C350.273 453.882 349.492 454.027 348.949 453.989C347.499 455.167 342.953 455.814 337.827 455.793C335.856 455.168 339.58 455.63 339.635 455.317C339.525 454.727 336.863 455.488 337.412 454.672C340.053 454.993 339.931 454.762 340.737 455.389C340.808 454.612 342.242 455.323 342.392 454.578C343.533 454.537 343.397 454.839 343.452 455.12C343.809 454.621 343.987 454.045 345.993 454.31C345.886 453.806 344.706 453.78 343.505 453.926C342.281 454.039 340.965 454.253 340.792 454.514C340.131 454.45 339.394 454.321 338.638 454.199C337.879 454.069 337.128 453.998 336.335 453.853C334.734 453.532 333.161 453.317 331.638 452.982C330.354 452.469 330.552 452.087 330.802 451.722C330.668 451.79 330.322 451.721 329.897 451.466C329.424 451.18 328.979 450.853 328.565 450.487C327.731 449.746 327.226 449.004 327.96 449.1C327.191 448.466 326.613 447.857 326.097 447.405C325.594 446.923 325.134 446.579 324.765 446.153C324.033 445.319 323.271 444.583 322.491 443.181C324.016 444.28 322.279 442.686 323.93 443.51C323.902 442.864 322.963 441.352 322.546 440.276C322.959 439.532 324.164 441.313 324.806 441.302C323.494 439.48 325.851 441.424 323.721 438.897C324.538 439.313 325.613 440.382 324.467 438.437C324.818 437.8 325.852 439.728 326.3 439.489C326.746 439.056 326.166 437.97 326.658 437.59C326.913 437.222 327.423 438.002 327.63 437.441L328.754 438.293C329.128 438.572 329.58 438.782 329.983 439.024C330.411 439.242 330.778 439.52 331.238 439.681L332.563 440.202C334.361 440.798 336.209 441.152 338.117 441.138C339.048 441.203 340.02 441.074 340.959 441.027C341.435 440.978 341.917 440.885 342.392 440.821C342.873 440.765 343.35 440.679 343.82 440.563C345.725 440.217 347.627 439.566 349.5 438.925C352.44 437.824 355.236 436.372 357.828 434.602L358.794 433.936L359.798 433.174L361.811 431.656C363.149 430.634 364.435 429.501 365.755 428.437C370.94 423.979 375.853 418.95 380.777 413.709C386.741 407.402 393.577 399.699 400.369 392.939C406.162 387.153 411.705 382.038 417.451 377.631C423.009 373.33 428.875 369.441 435.001 365.997C441.138 362.568 447.674 359.407 455.205 356.637C462.73 353.864 471.227 351.382 481.301 349.694C489.352 348.361 498.836 347.311 509.026 348.678C511.559 349.014 514.126 349.518 516.671 350.213C517.946 350.535 519.207 350.958 520.47 351.371C521.752 351.845 523.035 352.312 524.265 352.876C526.726 353.95 529.092 355.232 531.336 356.706C533.55 358.136 535.635 359.758 537.565 361.552C539.325 363.167 540.025 364.061 540.199 364.264C540.362 364.488 539.947 364.107 539.279 363.471C538.623 362.816 537.646 362.016 536.777 361.244L534.687 359.586C530.539 356.5 526.246 354.145 521.781 352.463C517.345 350.773 513.026 349.762 508.708 349.163C500.085 347.982 491.774 348.484 483.356 349.935C485.353 349.89 489.237 349.464 491.872 349.126C488.174 349.618 484.492 350.226 480.832 350.949C478.967 351.313 477.077 351.673 475.187 352.113C473.287 352.509 471.391 352.985 469.493 353.46C461.899 355.355 454.417 357.896 447.858 360.759C448.176 360.098 449.134 360.063 450.659 359.278C445.39 360.789 441.815 363.225 435.972 365.982C436.914 365.917 437.856 365.435 438.99 364.798C440.119 364.16 441.433 363.343 443.151 362.757C443.726 362.519 444.491 362.073 444.66 362.282L443.222 362.917C437.383 366.008 431.536 369.355 426.089 373.01C420.651 376.651 415.585 380.626 411.394 384.707C414.668 381.945 418.461 379.199 422.406 376.405C426.367 373.612 430.575 370.865 434.797 367.976C434.657 368.226 434.526 368.47 434.96 368.287C442.722 363.889 450.545 360.538 458.05 357.805C448.074 361.828 437.948 366.539 428.285 373.055C433.327 370.508 438.356 366.947 445.071 364.209C445.86 363.951 445.648 363.683 445.573 363.414C450.441 361.86 455.185 359.853 459.853 358.326C464.234 356.929 468.671 355.716 473.153 354.69C477.607 353.734 482.002 352.905 486.522 352.341C495.529 351.237 505.144 351.008 515.042 353.535C517.493 354.148 519.968 354.986 522.436 356.025C524.912 357.065 527.293 358.317 529.553 359.767C534.136 362.662 538.384 366.469 541.874 371.287C543.657 373.78 545.134 376.478 546.275 379.323C547.437 382.239 548.283 385.402 548.621 388.607C548.972 391.805 548.974 395.068 548.517 398.234C548.067 401.393 547.287 404.495 546.189 407.491C545.422 409.452 544.583 411.264 543.268 413.783C543.004 414.281 542.718 414.767 542.413 415.24C542.089 415.709 541.738 416.167 541.391 416.628C540.708 417.559 539.947 418.423 539.295 419.33C537.602 421.602 535.877 424.026 533.882 426.04C531.946 428.039 529.939 429.643 527.9 430.435C526.741 431.489 523.662 433.343 525.02 432.276C527.674 430.171 530.237 428.118 532.549 426.002C534.913 423.826 536.969 421.596 538.611 419.378C542.008 414.7 544.681 409.497 546.299 403.834C547.12 401.011 547.602 398.051 547.809 395.059C548.023 392.064 547.781 389.002 547.249 386.018C546.122 380.005 543.394 374.502 539.898 370.133C538.189 367.987 536.277 366.01 534.19 364.23C532.179 362.546 530.032 361.03 527.771 359.7C531.44 362.181 534.953 365.05 537.994 368.536C539.545 370.242 540.91 372.165 542.191 374.142C543.412 376.17 544.529 378.289 545.373 380.546C547.125 385.041 547.826 389.902 547.671 394.445C547.521 398.769 546.631 403.035 545.04 407.059C543.665 410.57 541.741 414.252 539.439 417.546C537.157 420.842 534.475 423.767 531.971 425.913C526.337 430.75 520.086 434.447 513.789 437.413C507.471 440.382 501.11 442.659 494.807 444.665C488.467 446.683 481.869 448.435 474.98 449.437C468.111 450.442 460.889 450.67 453.719 449.464C455.394 449.215 456.672 449.312 457.465 449.243V449.243ZM382.239 432.176C382.723 431.704 383.389 432.502 382.387 432.966C382.354 432.808 382.573 432.585 382.461 432.45C380.909 433.297 382.514 433.334 381.298 434.071C381.623 432.927 380.516 434.708 379.354 435.358C380.232 434.091 381.419 433.111 382.239 432.177L382.239 432.176ZM397.848 413.273C398.473 413.067 398.84 412.095 399.956 411.237C399.589 412.505 398.428 413.382 398.314 414.285C397.38 414.847 397.789 413.589 397.848 413.273V413.273ZM402.705 408.832C402.906 408.594 403.001 408.642 403.089 408.706C403.324 408.11 402.845 407.306 403.918 406.939C404.208 407.283 402.921 408.151 403.737 408.327C403.251 408.877 402.89 409.092 402.706 408.831L402.705 408.832ZM401.777 409.97C401.061 410.33 402.237 408.061 402.867 407.948C403.219 408.387 401.963 409.354 401.777 409.97ZM405.523 404.932L405.884 405.314C405.389 405.729 404.686 406.695 404.587 406.061C405.076 405.628 404.996 405.377 405.523 404.932ZM411.796 398.904C412.117 398.677 412.211 399.002 412.567 398.688C412.483 399.258 411.024 400.217 411.038 400.757C410.051 401.101 411.229 399.45 412.03 399.167L411.796 398.905L411.796 398.904ZM410.15 400.857C409.587 401.188 407.556 403.11 407.851 403.7C407.166 403.788 407.072 403.97 406.411 404.814C405.89 404.648 406.692 404.061 406.457 403.803C408.168 402.934 409.039 400.394 410.15 400.857V400.857ZM429.158 384.306C430.23 383.442 429.992 384.754 430.429 384.945C429.52 385.511 428.921 384.739 429.158 384.306ZM440.507 376.475C440.163 376.959 439.422 377.455 438.416 377.957C438.426 377.465 440.041 376.507 440.507 376.475ZM417.714 391.332C417.653 391.562 417.597 391.791 417.762 391.969C416.737 391.761 414.697 395.89 414.351 394.114C415.103 394.044 415.614 393.398 416.101 392.737C416.599 392.088 417.077 391.433 417.714 391.332V391.332ZM444.337 374.376C443.757 375.075 441.986 375.966 440.828 377.098C441.214 376.612 441.745 376.123 441.717 375.647C443.067 375.165 443.45 374.377 444.337 374.376V374.376ZM420.649 388.586C420.939 388.484 421.231 388.376 421.628 388.071C422.126 388.296 421.262 388.786 421.468 389.068C420.87 389.315 420.346 389.14 420.649 388.586ZM418.74 390.285C418.461 390.029 419.692 389.402 420.066 389.022C420.142 389.381 419.709 389.842 420.023 390.156C419.046 390.787 419.13 390.125 418.74 390.285V390.285ZM466.217 365.227C465.904 365.984 463.209 366.338 462.16 366.978C462.746 365.877 464.303 366.112 466.217 365.227ZM467.044 362.649C466.805 362.873 466.76 363.132 466.867 363.42C466.146 363.598 465.437 363.81 464.726 364.02C464.785 363.108 466.08 363.377 467.044 362.649ZM484.584 444.625C487.832 443.166 493.966 442.228 500.811 439.597C497.706 441.129 489.787 443.283 484.584 444.625ZM501.036 443.787C502.98 442.837 504.22 442.443 504.359 442.488C504.496 442.541 503.518 443.051 501.036 443.787ZM513.537 438.872C515.186 437.831 516.421 437.25 516.636 437.242C516.848 437.22 516.035 437.832 513.537 438.872ZM475.077 353.248C475.198 352.445 478.552 352.414 480.05 352.021C480.977 352.061 479.899 352.225 478.505 352.442C477.108 352.651 475.412 353.009 475.077 353.248ZM498.582 348.988C498.137 349.226 496.99 349.198 495.834 349.155C494.691 349.145 493.539 349.125 493.13 349.412C492.599 349.155 493.823 348.992 495.258 348.938C496.695 348.884 498.337 348.94 498.582 348.988V348.988ZM501.164 348.724C501.533 348.712 501.566 348.815 501.586 348.923C507.955 349.04 501.575 349.833 501.164 348.724ZM538.894 363.774C537.024 362.291 535.814 361.216 535.687 361.006C535.558 360.795 536.594 361.379 538.894 363.774ZM532.414 358.56C531.71 358.082 530.773 357.583 529.77 357.012C528.743 356.491 527.646 355.901 526.536 355.39C524.342 354.31 522.174 353.388 521.006 352.506C523.029 353.265 525.303 354.339 527.379 355.412C529.433 356.531 531.264 357.69 532.414 358.56ZM540.828 422.244C539.711 423.775 540.029 423.452 540.824 422.499C541.625 421.552 542.801 419.893 543.485 418.853C545.364 416.127 547.081 412.582 547.166 411.516C546.784 412.287 546.363 413.188 545.878 414.125C545.367 415.039 544.851 416.037 544.274 416.995C543.199 418.792 542.049 420.543 540.828 422.244V422.244Z" fill="url(#paint4_linear)"/>
<path fill-rule="evenodd" clip-rule="evenodd" d="M113.696 9L115.508 9.833L116 11.598L115.421 13.278L113.696 14L112.072 13.18L111 11.599L111.81 9.762L113.696 9Z" fill="#535FD7" fill-opacity="0.24"/>
<path fill-rule="evenodd" clip-rule="evenodd" d="M43.314 43L46.213 44.334L47 47.157L46.074 49.845L43.314 51L40.714 49.69L39 47.156L40.295 44.216L43.314 43Z" fill="#61EFFD"/>
<path fill-rule="evenodd" clip-rule="evenodd" d="M88.314 38L91.213 39.334L92 42.157L91.074 44.845L88.314 46L85.714 44.69L84 42.156L85.295 39.216L88.314 38Z" fill="#7C85E1"/>
<path fill-rule="evenodd" clip-rule="evenodd" d="M108.696 72L110.508 72.833L111 74.598L110.421 76.278L108.696 77L107.072 76.18L106 74.599L106.81 72.762L108.696 72ZM64.696 60L66.508 60.833L67 62.598L66.421 64.278L64.696 65L63.072 64.18L62 62.599L62.81 60.762L64.696 60Z" fill="#2FEAFC"/>
<path fill-rule="evenodd" clip-rule="evenodd" d="M64.696 4L66.508 4.833L67 6.598L66.421 8.278L64.696 9L63.072 8.18L62 6.599L62.81 4.762L64.696 4Z" fill="#93F4FE"/>
<path fill-rule="evenodd" clip-rule="evenodd" d="M121.696 43L123.508 43.833L124 45.598L123.421 47.278L121.696 48L120.072 47.18L119 45.599L119.81 43.762L121.696 43Z" fill="#61EFFD" fill-opacity="0.24"/>
<path fill-rule="evenodd" clip-rule="evenodd" d="M171.618 63L172.705 63.5L173 64.559L172.653 65.567L171.618 66L170.643 65.508L170 64.558L170.486 63.457L171.618 63ZM616.696 604L618.508 604.833L619 606.598L618.421 608.278L616.696 609L615.072 608.18L614 606.598L614.81 604.761L616.696 604Z" fill="white"/>
<path fill-rule="evenodd" clip-rule="evenodd" d="M690.696 546L692.508 546.833L693 548.598L692.421 550.278L690.696 551L689.072 550.18L688 548.598L688.81 546.761L690.696 546Z" fill="white" fill-opacity="0.32"/>
<path fill-rule="evenodd" clip-rule="evenodd" d="M633.696 585L635.508 585.833L636 587.598L635.421 589.278L633.696 590L632.072 589.18L631 587.598L631.81 585.761L633.696 585Z" fill="white"/>
<path fill-rule="evenodd" clip-rule="evenodd" d="M606.314 311L609.213 312.334L610 315.157L609.074 317.845L606.314 319L603.714 317.69L602 315.157L603.295 312.217L606.314 311Z" fill="white" fill-opacity="0.64"/>
<path fill-rule="evenodd" clip-rule="evenodd" d="M639.696 319L641.508 319.833L642 321.598L641.421 323.278L639.696 324L638.072 323.18L637 321.598L637.81 319.761L639.696 319ZM611.696 337L613.508 337.833L614 339.598L613.421 341.278L611.696 342L610.072 341.18L609 339.598L609.81 337.761L611.696 337ZM595.618 605L596.705 605.5L597 606.559L596.653 607.567L595.618 608L594.643 607.508L594 606.558L594.486 605.457L595.618 605Z" fill="white"/>
<path fill-rule="evenodd" clip-rule="evenodd" d="M427.409 523.063C427.589 522.686 427.929 522.369 428.055 521.973C428.179 521.577 428.381 521.208 428.466 520.797C428.552 520.385 428.192 519.8 428.246 519.374C428.301 518.948 427.918 518.351 427.949 517.912C427.979 517.474 428.139 517.087 428.157 516.642C428.177 516.2 428.279 515.788 428.296 515.342C428.311 514.895 428.881 514.674 428.9 514.227C428.918 513.781 428.25 513.047 428.284 512.603C428.32 512.161 428.709 511.866 428.771 511.433C428.839 510.943 428.958 510.472 429.107 510.013C429.259 509.556 429.806 509.275 429.994 508.836C430.182 508.395 430.257 507.903 430.445 507.462C430.633 507.022 430.585 506.471 430.733 506.012C430.88 505.559 431.338 505.254 431.525 504.822C431.712 504.391 431.558 503.795 431.785 503.38C432.013 502.967 432.057 502.463 432.328 502.07C432.596 501.676 433.458 501.581 433.772 501.213C434.055 500.883 433.717 500.233 434.055 499.929C434.392 499.625 435.395 499.671 435.759 499.387C436.122 499.101 435.821 498.463 436.194 498.183C436.568 497.903 437.231 497.783 437.594 497.501C437.956 497.218 438.631 497.108 438.954 496.809C439.052 496.719 439.667 497.055 439.584 497.153C439.278 497.513 439.32 498.061 439.087 498.459C438.851 498.858 438.099 498.985 437.923 499.417C437.746 499.849 438.13 500.566 438.003 501.02C437.874 501.472 437.601 501.85 437.502 502.318C437.402 502.784 437.509 503.351 437.421 503.82C437.335 504.29 437.374 504.821 437.285 505.288C437.195 505.754 436.854 506.1 436.749 506.558C436.644 507.017 436.31 507.366 436.174 507.808C436.034 508.257 436.243 508.867 436.064 509.295C435.888 509.725 435.744 510.171 435.494 510.566C435.242 510.962 435.014 511.371 434.658 511.719C434.302 512.067 433.651 512.286 433.156 512.575C432.658 512.865 432.396 513.259 432.08 513.628C431.761 514 431.06 514.205 430.868 514.633C430.678 515.062 430.594 515.536 430.479 515.995C430.363 516.453 430.414 516.98 430.323 517.448C430.243 517.868 430.107 518.265 430.006 518.676C429.903 519.086 429.832 519.507 429.69 519.9C429.55 520.294 429.472 520.713 429.282 521.088C429.092 521.463 428.726 521.77 428.476 522.123C428.226 522.476 428.081 522.87 427.753 523.196C427.721 523.227 427.39 523.101 427.409 523.063" fill="#6B32E3" fill-opacity="0.48"/>
<path fill-rule="evenodd" clip-rule="evenodd" d="M428.286 464.538C428.628 464.491 429.013 464.608 429.343 464.505C429.673 464.404 430.023 464.367 430.337 464.21C430.654 464.053 430.84 463.44 431.139 463.245C431.439 463.047 431.604 462.4 431.889 462.178C432.175 461.96 432.496 461.856 432.773 461.612C433.048 461.366 433.353 461.219 433.62 460.961C433.887 460.705 434.348 461.015 434.617 460.761C434.886 460.51 434.891 459.539 435.153 459.298C435.414 459.053 435.811 459.173 436.077 458.942C436.371 458.694 436.69 458.477 437.03 458.297C437.357 458.113 437.846 458.329 438.192 458.181C438.538 458.037 438.825 457.754 439.164 457.598C439.505 457.442 439.734 457.04 440.047 456.828C440.353 456.621 440.81 456.739 441.132 456.563C441.456 456.388 441.615 455.873 441.953 455.74C442.293 455.602 442.533 455.272 442.891 455.172C443.247 455.075 443.901 455.549 444.283 455.478C444.625 455.413 444.645 454.743 445.008 454.722C445.372 454.704 446.102 455.346 446.493 455.352C446.884 455.358 446.895 454.69 447.286 454.699C447.676 454.705 448.238 454.998 448.622 454.979C449.007 454.961 449.58 455.247 449.952 455.192C450.063 455.175 450.432 455.772 450.328 455.802C449.946 455.918 449.77 456.371 449.429 456.556C449.089 456.745 448.442 456.405 448.135 456.638C447.828 456.871 447.827 457.644 447.529 457.911C447.233 458.177 446.864 458.311 446.578 458.598C446.291 458.885 446.109 459.375 445.824 459.674C445.537 459.972 445.306 460.382 445.01 460.674C444.714 460.967 444.287 460.994 443.975 461.256C443.662 461.518 443.245 461.561 442.911 461.777C442.573 462 442.391 462.575 442.03 462.758C441.667 462.934 441.316 463.144 440.92 463.246C440.527 463.349 440.13 463.454 439.692 463.439C439.252 463.421 438.697 463.099 438.206 462.919C437.714 462.741 437.323 462.811 436.906 462.805C436.483 462.8 435.929 462.4 435.562 462.522C435.192 462.642 434.855 462.86 434.508 463.052C434.164 463.247 433.865 463.594 433.518 463.8C433.206 463.982 432.88 464.12 432.557 464.268C432.235 464.42 431.921 464.604 431.587 464.716C431.251 464.828 430.928 464.988 430.577 465.041C430.226 465.093 429.828 464.961 429.46 464.937C429.092 464.913 428.752 465.002 428.368 464.898C428.33 464.888 428.251 464.544 428.286 464.538" fill="#6B32E3" fill-opacity="0.48"/>
<path fill-rule="evenodd" clip-rule="evenodd" d="M510.24 452.562C510.743 452.78 511.187 453.159 511.71 453.323C512.234 453.487 512.732 453.724 513.271 453.844C513.811 453.964 514.515 453.636 515.067 453.721C515.619 453.806 516.329 453.449 516.89 453.508C517.451 453.568 517.966 453.753 518.532 453.796C519.098 453.839 519.633 453.971 520.2 454.007C520.77 454.043 521.137 454.643 521.705 454.682C522.272 454.722 523.089 454.052 523.651 454.102C524.213 454.153 524.647 454.567 525.201 454.64C525.829 454.723 526.441 454.857 527.041 455.021C527.641 455.185 528.094 455.755 528.681 455.957C529.268 456.159 529.899 456.237 530.487 456.435C531.075 456.633 531.751 456.582 532.354 456.733C532.948 456.883 533.425 457.359 534.004 457.547C534.584 457.735 535.288 457.568 535.854 457.797C536.418 458.025 537.052 458.058 537.604 458.33C538.152 458.6 538.481 459.49 539.017 459.805C539.499 460.089 540.217 459.718 540.679 460.056C541.141 460.393 541.349 461.438 541.802 461.807C542.255 462.175 542.965 461.829 543.415 462.204C543.865 462.58 544.203 463.268 544.659 463.628C545.115 463.989 545.452 464.688 545.922 465.009C546.064 465.106 545.833 465.769 545.685 465.687C545.142 465.387 544.471 465.458 543.902 465.235C543.333 465.011 542.956 464.227 542.366 464.063C541.777 463.899 540.986 464.328 540.38 464.208C539.775 464.088 539.221 463.818 538.607 463.726C537.992 463.633 537.304 463.757 536.685 463.676C536.067 463.594 535.405 463.64 534.786 463.553C534.169 463.466 533.644 463.109 533.034 463C532.424 462.891 531.896 462.545 531.3 462.4C530.696 462.25 529.962 462.463 529.37 462.271C528.78 462.081 528.175 461.922 527.612 461.654C527.049 461.385 526.476 461.134 525.954 460.754C525.432 460.374 525.024 459.689 524.557 459.164C524.09 458.635 523.538 458.352 523.009 458.007C522.476 457.661 522.091 456.923 521.512 456.707C520.933 456.491 520.316 456.379 519.709 456.238C519.104 456.098 518.439 456.118 517.823 455.996C517.273 455.887 516.74 455.726 516.2 455.591C515.66 455.456 515.106 455.353 514.58 455.181C514.053 455.006 513.504 454.891 512.996 454.664C512.489 454.439 512.049 454.036 511.566 453.746C511.084 453.456 510.559 453.273 510.106 452.906C510.06 452.869 510.188 452.54 510.239 452.562" fill="white" fill-opacity="0.48"/>
<path fill-rule="evenodd" clip-rule="evenodd" d="M542.14 562.339C541.88 561.871 541.762 561.309 541.453 560.871C541.146 560.432 540.893 559.956 540.538 559.551C540.182 559.144 539.438 559.003 539.05 558.625C538.66 558.246 537.886 558.138 537.477 557.779C537.069 557.417 536.76 556.989 536.332 556.644C535.902 556.303 535.556 555.9 535.114 555.569C534.675 555.237 534.716 554.547 534.279 554.213C533.843 553.878 532.801 554.012 532.375 553.679C531.946 553.347 531.825 552.777 531.407 552.437C530.944 552.053 530.509 551.638 530.105 551.193C529.697 550.76 529.625 550.057 529.246 549.597C528.871 549.135 528.376 548.77 527.991 548.318C527.605 547.865 527.013 547.587 526.581 547.177C526.156 546.773 526.002 546.137 525.603 545.712C525.203 545.285 524.523 545.107 524.159 544.654C523.791 544.202 523.262 543.894 522.925 543.414C522.592 542.934 522.731 542.02 522.417 541.513C522.133 541.056 521.346 541.063 521.099 540.577C520.854 540.087 521.156 539.08 520.929 538.563C520.704 538.043 519.917 538.059 519.693 537.54C519.466 537.022 519.477 536.27 519.227 535.766C518.981 535.261 518.985 534.503 518.706 534.022C518.621 533.877 519.113 533.378 519.209 533.512C519.564 534.003 520.197 534.213 520.61 534.646C521.025 535.079 521.003 535.941 521.455 536.332C521.905 536.722 522.801 536.682 523.28 537.054C523.757 537.426 524.128 537.901 524.622 538.258C525.117 538.615 525.779 538.816 526.286 539.168C526.79 539.521 527.387 539.791 527.886 540.154C528.387 540.516 528.666 541.077 529.14 541.464C529.615 541.851 529.907 542.398 530.343 542.819C530.787 543.243 531.525 543.421 531.939 543.879C532.344 544.339 532.78 544.779 533.123 545.293C533.468 545.803 533.814 546.319 534.057 546.908C534.3 547.498 534.282 548.29 534.385 548.978C534.489 549.668 534.801 550.189 535.048 550.76C535.298 551.333 535.208 552.152 535.565 552.637C535.919 553.125 536.355 553.553 536.772 553.997C537.188 554.44 537.735 554.79 538.162 555.232C538.542 555.628 538.886 556.049 539.236 556.467C539.59 556.883 539.973 557.28 540.293 557.72C540.612 558.16 540.973 558.573 541.243 559.047C541.511 559.522 541.621 560.099 541.821 560.617C542.023 561.132 542.321 561.586 542.453 562.144C542.466 562.201 542.166 562.386 542.14 562.339V562.339ZM547.76 531.579C547.869 531.534 548.088 531.621 548.161 531.532C548.234 531.442 548.355 531.412 548.398 531.288C548.441 531.163 548.178 530.671 548.197 530.517C548.216 530.364 547.935 529.849 547.936 529.674C547.938 529.5 548.026 529.429 548.016 529.241C548.006 529.053 548.057 528.938 548.043 528.745C548.029 528.552 548.398 528.818 548.385 528.627C548.373 528.436 547.881 527.667 547.877 527.487C547.873 527.306 548.116 527.421 548.127 527.257C548.139 527.073 548.187 526.931 548.255 526.811C548.322 526.693 548.666 526.906 548.759 526.819C548.853 526.731 548.862 526.541 548.953 526.451C549.044 526.36 548.966 526.066 549.026 525.937C549.084 525.811 549.364 525.953 549.449 525.857C549.534 525.764 549.379 525.379 549.491 525.317C549.604 525.257 549.583 525.036 549.725 525.009C549.865 524.982 550.426 525.462 550.596 525.471C550.75 525.479 550.461 524.951 550.651 525.004C550.841 525.056 551.51 525.688 551.72 525.766C551.931 525.843 551.659 525.334 551.875 525.416C552.091 525.501 552.517 525.84 552.722 525.911C552.928 525.981 553.361 526.328 553.541 526.368C553.594 526.378 554.041 526.918 553.997 526.92C553.837 526.924 553.928 527.23 553.82 527.297C553.711 527.363 553.224 526.973 553.156 527.087C553.088 527.203 553.42 527.799 553.382 527.949C553.343 528.099 553.203 528.128 553.183 528.301C553.163 528.474 553.29 528.821 553.277 529.003C553.265 529.185 553.339 529.471 553.323 529.648C553.307 529.826 553.108 529.784 553.077 529.943C553.047 530.103 552.856 530.07 552.8 530.199C552.742 530.329 552.93 530.755 552.844 530.851C552.758 530.947 552.696 531.071 552.557 531.105C552.419 531.138 552.293 531.185 552.079 531.127C551.864 531.069 551.444 530.76 551.131 530.58C550.816 530.4 550.667 530.419 550.477 530.388C550.285 530.356 549.828 530.003 549.725 530.078C549.622 530.152 549.59 530.313 549.538 530.448C549.486 530.585 549.544 530.854 549.505 531.007C549.47 531.144 549.4 531.237 549.348 531.353C549.296 531.469 549.265 531.611 549.187 531.693C549.108 531.778 549.069 531.91 548.955 531.951C548.841 531.991 548.606 531.887 548.448 531.875C548.29 531.863 548.205 531.939 547.994 531.863C547.907 531.776 547.829 531.681 547.76 531.579" fill="white"/>
</g>
<defs>
<linearGradient id="paint0_linear" x1="991.941" y1="568.329" x2="466.468" y2="503.128" gradientUnits="userSpaceOnUse">
<stop stop-color="#D3DEFE" stop-opacity="0"/>
<stop offset="0.51929" stop-color="#D3DEFE"/>
<stop offset="1" stop-color="#535FD7"/>
</linearGradient>
<linearGradient id="paint1_linear" x1="683.193" y1="254.47" x2="156.921" y2="184.404" gradientUnits="userSpaceOnUse">
<stop stop-color="#D3DEFE" stop-opacity="0"/>
<stop offset="0.51929" stop-color="#D3DEFE"/>
<stop offset="1" stop-color="#535FD7"/>
</linearGradient>
<linearGradient id="paint2_linear" x1="387.92" y1="430.148" x2="10.9497" y2="379.33" gradientUnits="userSpaceOnUse">
<stop stop-color="#D3DEFE" stop-opacity="0"/>
<stop offset="0.51929" stop-color="#D3DEFE"/>
<stop offset="1" stop-color="#535FD7" stop-opacity="0.24"/>
</linearGradient>
<linearGradient id="paint3_linear" x1="462.968" y1="489.18" x2="969.782" y2="670.127" gradientUnits="userSpaceOnUse">
<stop stop-color="#D3DEFE" stop-opacity="0"/>
<stop offset="1" stop-color="#D3DEFE"/>
</linearGradient>
<linearGradient id="paint4_linear" x1="331.305" y1="438.929" x2="414.192" y2="491.541" gradientUnits="userSpaceOnUse">
<stop stop-color="#D3DEFE"/>
<stop offset="1" stop-color="white" stop-opacity="0.48"/>
</linearGradient>
<clipPath id="clip0">
<rect width="733" height="749" fill="white"/>
</clipPath>
</defs>
</svg>
